<?xml version="1.0" standalone="no"?>
<!DOCTYPE svg PUBLIC "-//W3C//DTD SVG 1.1//EN" "http://www.w3.org/Graphics/SVG/1.1/DTD/svg11.dtd" >
<svg xmlns="http://www.w3.org/2000/svg">
<metadata></metadata>
<defs>
<font id="nurjanregular" horiz-adv-x="1052" >
<font-face units-per-em="2048" ascent="1536" descent="-512" />
<missing-glyph horiz-adv-x="512" />
<glyph horiz-adv-x="0" />
<glyph unicode="&#xd;" horiz-adv-x="102" />
<glyph horiz-adv-x="0" />
<glyph horiz-adv-x="0" />
<glyph unicode=" "  horiz-adv-x="512" />
<glyph unicode="&#x09;" horiz-adv-x="512" />
<glyph unicode="&#xa0;" horiz-adv-x="512" />
<glyph unicode="!" horiz-adv-x="577" d="M0 1743h475l-39 -55l-45 -1258l27 -31h-361l27 31l-45 1258zM86 35q14 0 24.5 -10.5t12.5 -24.5h229q2 14 12.5 24.5t24.5 10.5v229q-16 0 -27.5 12.5t-9.5 28.5h-229q2 -16 -9.5 -28.5t-27.5 -12.5v-229z" />
<glyph unicode="&#x22;" horiz-adv-x="804" d="M0 1280l152 160h-115q0 14 -10.5 23.5t-26.5 9.5v231q16 0 27.5 11t11.5 28h227q0 -16 11.5 -27.5t27.5 -11.5v-264l-153 -160h-152zM399 1280l152 160h-115q0 14 -10 23.5t-27 9.5v231q16 0 27.5 11t9.5 28h230q0 -16 10 -27.5t26 -11.5v-264l-151 -160h-152z" />
<glyph unicode="#" horiz-adv-x="1660" d="M0 178v475l119 -86h162l92 305h-254l-119 -86v476l119 -86h344l45 143l-51 121h477l-123 -121l-43 -143h297l43 143l-49 121h475l-123 -121l-43 -143h72l119 86v-476l-119 86h-162l-92 -305h254l119 86v-475l-119 84h-346l-43 -143l51 -119h-475l121 119l43 143h-297 l-43 -143l49 -119h-475l120 119l45 143h-71zM586 567h297l90 305h-297z" />
<glyph unicode="$" d="M0 633h436l-41 -55v-35q0 -35 22.5 -57.5t57.5 -22.5q33 0 55.5 22.5t22.5 57.5v94q0 33 -22.5 55.5t-55.5 22.5q-139 0 -235.5 54t-151.5 139t-67.5 187.5t16.5 199t100.5 173t184.5 109.5v47l-84 119h475l-86 -119v-51q70 -25 129 -69t102 -102.5t67.5 -130 t24.5 -149.5h-436l39 56v36q0 33 -22.5 55.5t-55.5 22.5t-56.5 -22.5t-23.5 -55.5v-114q0 -35 23.5 -57.5t56.5 -22.5q137 0 234.5 -53.5t151.5 -136t66.5 -182t-16 -194t-100.5 -169t-184 -107.5v-59l86 -119h-475l84 119v65q-70 25 -129.5 68t-102.5 101.5t-66.5 130 t-23.5 149.5z" />
<glyph unicode="%" horiz-adv-x="1144" d="M0 0l125 119l489 1505l-47 119h475l-124 -119l-490 -1505l47 -119h-475zM0 1319v215q0 43 16.5 81t45 66.5t66.5 45t81 16.5t81 -16.5t66.5 -45t45 -66.5t16.5 -81v-215q0 -43 -16.5 -81t-45 -66.5t-66.5 -45t-81 -16.5t-81 16.5t-66.5 45t-45 66.5t-16.5 81zM135 1264 q0 -31 21.5 -52.5t52.5 -21.5t52.5 21.5t21.5 52.5v325q0 31 -21.5 52.5t-52.5 21.5t-52.5 -21.5t-21.5 -52.5v-325zM625 209v215q0 43 16 82t45 66.5t67 44t81 16.5t80.5 -16.5t66.5 -44t45 -66.5t16 -82v-215q0 -43 -16 -81t-45 -66.5t-66.5 -45t-80.5 -16.5t-81 16.5 t-67 45t-45 66.5t-16 81zM760 154q0 -31 21.5 -52.5t52.5 -21.5t52 21.5t21 52.5v327q0 29 -21.5 50.5t-51.5 21.5q-31 0 -52.5 -21.5t-21.5 -50.5v-327z" />
<glyph unicode="&#x26;" d="M0 475v426q0 98 37 184q-37 82 -37 183q0 98 38 184t102.5 150.5t150.5 102.5t184 38t184 -38t150.5 -102.5t102.5 -150.5t38 -184h-397v90q0 35 -22.5 57.5t-55.5 22.5t-56.5 -22.5t-23.5 -57.5v-178q4 -39 31 -64.5t66 -30.5h61l-158 -196v-506q0 -33 23.5 -55.5 t56.5 -22.5t55.5 22.5t22.5 55.5v37l-39 55h436q0 -98 -38 -184t-102.5 -150.5t-150.5 -102.5t-184 -38t-185 37t-151.5 101.5t-101.5 151.5t-37 185z" />
<glyph unicode="'" horiz-adv-x="407" d="M0 1280l152 160h-115q0 14 -10.5 23.5t-26.5 9.5v231q16 0 27.5 11t11.5 28h227q0 -16 11.5 -27.5t27.5 -11.5v-264l-153 -160h-152z" />
<glyph unicode="(" horiz-adv-x="591" d="M0 94v1254q0 80 29.5 152.5t80 125.5t117 85t142.5 32h120v-252h-92q-39 0 -65.5 -26.5t-26.5 -65.5v-1356q0 -39 26.5 -65.5t65.5 -26.5h92v-254h-120q-76 0 -142.5 31.5t-117 86t-80 127t-29.5 152.5z" />
<glyph unicode=")" horiz-adv-x="591" d="M0 -49h92q39 0 65.5 26.5t26.5 65.5v1356q0 39 -26.5 65.5t-65.5 26.5h-92v252h121q76 0 142.5 -32t116.5 -85t79.5 -126t29.5 -152v-1254q0 -80 -29.5 -152.5t-79.5 -127t-116.5 -86t-142.5 -31.5h-121v254z" />
<glyph unicode="*" horiz-adv-x="585" d="M0 1540l41 107l143 -48v144h117v-144l139 48l43 -107l-139 -55l88 -117l-94 -65l-94 118l-94 -118l-99 65l88 123z" />
<glyph unicode="+" horiz-adv-x="1050" d="M0 481v475l119 -84h203v203l-84 119h475l-86 -119v-203h202l119 84v-475l-119 86h-202v-202l86 -119h-475l84 119v202h-203z" />
<glyph unicode="," horiz-adv-x="407" d="M0 35v229q16 0 27.5 12.5t11.5 28.5h227q0 -16 11.5 -28.5t27.5 -12.5v-264l-153 -158h-152l152 158h-115q0 14 -10.5 24.5t-26.5 10.5z" />
<glyph unicode="-" horiz-adv-x="1050" d="M0 481v475l119 -84h710l119 84v-475l-119 86h-710z" />
<glyph unicode="." horiz-adv-x="407" d="M0 35v229q16 0 27.5 12.5t11.5 28.5h227q0 -16 11.5 -28.5t27.5 -12.5v-229q-16 0 -26.5 -10.5t-12.5 -24.5h-229q0 14 -10.5 24.5t-26.5 10.5z" />
<glyph unicode="/" d="M0 0l119 119l409 1505l-53 119h475l-119 -119l-409 -1505l53 -119h-475z" />
<glyph unicode="0" d="M0 475v490q0 98 37 184t101.5 150.5t151.5 102.5t185 38t184 -38t150.5 -102.5t102.5 -150.5t38 -184v-490q0 -98 -38 -185t-102.5 -151.5t-150.5 -101.5t-184 -37t-185 37t-151.5 101.5t-101.5 151.5t-37 185zM395 383q0 -33 22.5 -55.5t57.5 -22.5q33 0 55.5 22.5 t22.5 55.5v672q0 35 -22.5 57.5t-55.5 22.5t-56.5 -22.5t-23.5 -57.5v-672z" />
<glyph unicode="1" horiz-adv-x="618" d="M0 1108l80 332h395v-1385l41 -55h-477l41 55v1053h-80z" />
<glyph unicode="2" d="M0 0l39 55l2 383q0 80 25.5 156t79 136.5t135 96t194.5 35.5q33 0 55.5 22.5t22.5 55.5v115q0 35 -22.5 57.5t-55.5 22.5q-35 0 -57.5 -22.5t-22.5 -57.5v-90h-395q0 98 37 184t101.5 150.5t151.5 102.5t185 38q152 0 254 -65.5t152.5 -164t51.5 -212t-50.5 -212 t-153.5 -164t-254 -65.5q-33 0 -56.5 -22.5t-23.5 -57.5v-172h434l121 84v-389h-950z" />
<glyph unicode="3" d="M0 475h436l-41 -55v-37q0 -33 22.5 -55.5t57.5 -22.5q33 0 55.5 22.5t22.5 55.5v303q-4 39 -30.5 65.5t-63.5 30.5q37 4 63.5 30t30.5 65v178q0 35 -22.5 57.5t-55.5 22.5q-35 0 -57.5 -22.5t-22.5 -57.5v-90h-395q0 98 38 184t102.5 150.5t150.5 102.5t184 38t184 -38 t150.5 -102.5t102.5 -150.5t38 -184q0 -49 -10 -95.5t-27 -87.5q16 -43 26.5 -89t10.5 -95v-123q0 -98 -38 -185t-102.5 -151.5t-150.5 -101.5t-184 -37t-184 38t-150.5 102.5t-102.5 150.5t-38 184z" />
<glyph unicode="4" horiz-adv-x="1101" d="M0 262v254l322 924h598l-39 -58v-866l118 86v-424l-118 84v-207l39 -55h-476l39 55v207h-483zM303 516h180v518z" />
<glyph unicode="5" horiz-adv-x="1050" d="M0 475h434l-39 -55v-37q0 -33 22.5 -55.5t57.5 -22.5q33 0 55.5 22.5t22.5 55.5v279q0 33 -22.5 55t-55.5 22q-35 0 -57.5 -22.5t-22.5 -54.5h-395v778h948v-391l-119 86h-475v-105q29 6 58.5 10t62.5 4q90 0 175 -31.5t150.5 -88t105.5 -132t40 -163.5v-213 q0 -88 -40 -164t-105.5 -132.5t-150.5 -88t-175 -31.5q-98 0 -185 37t-151.5 101.5t-101.5 151.5t-37 185z" />
<glyph unicode="6" d="M0 475v490q0 98 37 184t101.5 150.5t151.5 102.5t185 38t184 -38t150.5 -102.5t102.5 -150.5t38 -184h-397v90q0 35 -22.5 57.5t-55.5 22.5t-56.5 -22.5t-23.5 -57.5v-195q39 6 80 6q154 0 256.5 -64.5t153.5 -160.5t51 -207.5t-51 -208t-153.5 -161t-256.5 -64.5 q-98 0 -184 38t-150.5 102.5t-102.5 150.5t-38 184zM395 383q0 -33 22.5 -55.5t57.5 -22.5q33 0 55.5 22.5t22.5 55.5v100q0 33 -22.5 56.5t-55.5 23.5t-56.5 -23.5t-23.5 -56.5v-100z" />
<glyph unicode="7" horiz-adv-x="1054" d="M0 0l59 55l357 1080h-297l-119 -86v391h952l-59 -58l-438 -1327l22 -55h-477z" />
<glyph unicode="8" d="M0 475q0 66 17.5 128.5t50.5 115.5q-33 53 -50.5 115.5t-17.5 130.5q0 98 38 184t102.5 150.5t150.5 102.5t184 38t184 -38t150.5 -102.5t102.5 -150.5t38 -184q0 -68 -18.5 -130.5t-50.5 -115.5q33 -53 51 -115.5t18 -128.5q0 -98 -38 -185t-102.5 -151.5t-150.5 -101.5 t-184 -37t-185 37t-151.5 101.5t-101.5 151.5t-37 185zM395 383q0 -33 22.5 -55.5t57.5 -22.5q33 0 55.5 22.5t22.5 55.5v182q0 35 -22.5 57.5t-55.5 22.5t-56.5 -22.5t-23.5 -57.5v-182zM395 940q0 -33 22.5 -56.5t57.5 -23.5q33 0 55.5 23.5t22.5 56.5v115 q0 35 -22.5 57.5t-55.5 22.5t-56.5 -22.5t-23.5 -57.5v-115z" />
<glyph unicode="9" d="M0 475h436l-41 -55v-37q0 -33 22.5 -55.5t57.5 -22.5q33 0 55.5 22.5t22.5 55.5v197q-33 -8 -78 -9q-154 0 -256 64.5t-153.5 161t-51.5 209t51.5 209t154 161t255.5 64.5q98 0 184 -38t150.5 -102.5t102.5 -150.5t38 -184v-490q0 -98 -38 -185t-102.5 -151.5 t-150.5 -101.5t-184 -37t-184 38t-150.5 102.5t-102.5 150.5t-38 184zM395 956q0 -35 22.5 -57t57.5 -22q33 0 55.5 22.5t22.5 56.5v99q0 35 -22.5 57.5t-55.5 22.5t-56.5 -22.5t-23.5 -57.5v-99z" />
<glyph unicode=":" horiz-adv-x="407" d="M0 35v229q16 0 27.5 12.5t11.5 28.5h227q0 -16 11.5 -28.5t27.5 -12.5v-229q-16 0 -26.5 -10.5t-12.5 -24.5h-229q0 14 -10.5 24.5t-26.5 10.5zM0 602v229q16 0 27.5 12.5t11.5 28.5h227q0 -16 11.5 -28.5t27.5 -12.5v-229q-16 0 -26.5 -10t-12.5 -25h-229 q0 14 -10.5 24.5t-26.5 10.5z" />
<glyph unicode=";" horiz-adv-x="407" d="M0 35v229q16 0 27.5 12.5t11.5 28.5h227q0 -16 11.5 -28.5t27.5 -12.5v-264l-153 -158h-152l152 158h-115q0 14 -10.5 24.5t-26.5 10.5zM0 602v229q16 0 27.5 12.5t11.5 28.5h227q0 -16 11.5 -28.5t27.5 -12.5v-229q-16 0 -26.5 -10t-12.5 -25h-229q0 14 -10.5 24.5 t-26.5 10.5z" />
<glyph unicode="&#x3c;" horiz-adv-x="964" d="M0 719l631 364l78 105l153 -264l-354 -205l354 -205l-153 -262l-78 102z" />
<glyph unicode="=" horiz-adv-x="1050" d="M0 266l119 86h710l119 -86v389h-948v-389zM0 782v392l119 -87h710l119 87v-392h-948z" />
<glyph unicode="&#x3e;" horiz-adv-x="964" d="M0 514l354 205l-354 205l154 264l77 -105l631 -364l-631 -365l-77 -102z" />
<glyph unicode="?" d="M0 1151v117q0 98 37 184t101.5 150.5t151.5 102.5t185 38t184 -38t150.5 -102.5t102.5 -150.5t38 -184q0 -162 -43 -261.5t-145 -175.5q-53 -41 -125 -64.5t-162 -23.5q-33 0 -56.5 -22.5t-23.5 -56.5v-226l29 -39h-361l29 39v168q0 102 16.5 184t59.5 138.5t117.5 87.5 t189.5 31q33 0 55.5 23.5t22.5 55.5v234q0 33 -22.5 56.5t-55.5 23.5q-35 0 -57.5 -23.5t-22.5 -56.5v-154l41 -55h-436zM92 35v229q16 0 27.5 12.5t9.5 28.5h229q-2 -16 9.5 -28.5t27.5 -12.5v-229q-16 0 -26.5 -10.5t-10.5 -24.5h-229q-2 14 -12.5 24.5t-24.5 10.5z" />
<glyph unicode="@" horiz-adv-x="1435" d="M0 698q0 309 188 527q186 215 523 215q180 0 311 -64.5t227 -212.5q84 -133 84 -323q0 -254 -149 -402q-152 -147 -301 -147q-115 0 -140 96q-53 -49 -97 -72.5t-109 -23.5q-123 0 -193 74.5t-89 185.5t7.5 236.5t93.5 226.5q115 164 271 164q66 0 116 -32t86 -89l15 94 h205l-41 -55l-97 -578q-12 -70 32 -79t106 40q61 43 108 142q47 98 47 219q0 111 -37 198.5t-102.5 149t-154.5 94.5t-195 33q-254 0 -420 -166q-164 -168 -164 -444q0 -268 160 -424q125 -121 307 -150l104 76v-207q-301 0 -499 193q-203 190 -203 505zM430 598 q0 -70 23.5 -114t57.5 -62.5t74 -10t74 41.5q43 43 80 174q37 123 37 252q0 33 -7 62.5t-22.5 53t-38 38t-55.5 14.5q-66 0 -108.5 -50.5t-68 -121t-36 -147.5t-10.5 -130z" />
<glyph unicode="A" horiz-adv-x="1409" d="M0 0l57 55l383 1327l-24 58h475l-25 -58l383 -1327l58 -55h-476l23 55l-59 207h-283l-59 -207l22 -55h-475zM600 567h107l-54 187z" />
<glyph unicode="B" horiz-adv-x="1091" d="M0 0l39 55v1327l-39 58h532q94 -4 178.5 -43t146 -102.5t97 -148.5t35.5 -181q0 -68 -17.5 -129.5t-49.5 -114.5q33 -53 50 -115.5t17 -130.5q0 -96 -35.5 -180t-97 -148.5t-145.5 -103.5t-179 -43h-532zM436 303h78q35 0 57.5 23.5t22.5 56.5v182q0 33 -23.5 56.5 t-56.5 23.5h-78v-342zM436 864h78q33 0 56.5 22.5t23.5 55.5v113q0 35 -23.5 57.5t-56.5 22.5h-78v-271z" />
<glyph unicode="C" d="M0 475v490q0 98 37 184t101.5 150.5t151.5 102.5t185 38t184 -38t150.5 -102.5t102.5 -150.5t38 -184v-119h-436l39 55v154q0 35 -22.5 57.5t-55.5 22.5t-56.5 -22.5t-23.5 -57.5v-672q0 -33 23.5 -55.5t56.5 -22.5t55.5 22.5t22.5 55.5v154l-39 55h436v-117 q0 -98 -38 -185t-102.5 -151.5t-150.5 -101.5t-184 -37t-185 37t-151.5 101.5t-101.5 151.5t-37 185z" />
<glyph unicode="D" horiz-adv-x="1091" d="M0 0l39 55v1327l-39 58h475h57q94 0 178.5 -38t146 -103.5t97 -151.5t35.5 -182v-490q0 -96 -35.5 -182t-98 -151.5t-145.5 -103.5t-178 -38h-57h-475zM436 305h78q33 0 56.5 22.5t23.5 55.5v672q0 35 -22.5 57.5t-57.5 22.5h-78v-830z" />
<glyph unicode="E" horiz-adv-x="888" d="M0 0l39 55v1327l-39 58h786v-391l-118 86h-232v-289h156l119 86v-424l-119 84h-156v-287h232l118 84v-389h-786z" />
<glyph unicode="F" horiz-adv-x="888" d="M0 0l39 55v1327l-39 58h786v-391l-118 86h-232v-289h156l119 86v-424l-119 84h-156v-537l39 -55h-475z" />
<glyph unicode="G" d="M0 475v490q0 98 37 184t101.5 150.5t151.5 102.5t185 38t184 -38t150.5 -102.5t102.5 -150.5t38 -184v-111h-436l39 55v146q0 35 -22.5 57.5t-55.5 22.5t-56.5 -22.5t-23.5 -57.5v-672q0 -33 23.5 -55.5t56.5 -22.5t55.5 22.5t22.5 55.5v154l-39 55h436v-592h-305v31 q-80 -31 -170 -31q-98 0 -185 37t-151.5 101.5t-101.5 151.5t-37 185z" />
<glyph unicode="H" horiz-adv-x="1202" d="M0 0l39 55v1327l-39 58h475l-39 -58v-510h230v510l-41 58h475l-39 -58v-1327l39 -55h-475l41 55v512h-230v-512l39 -55h-475z" />
<glyph unicode="I" horiz-adv-x="577" d="M0 0l39 55v1327l-39 58h475l-39 -58v-1327l39 -55h-475z" />
<glyph unicode="J" horiz-adv-x="1091" d="M0 475v117h436l-41 -55v-154q0 -33 22.5 -55.5t57.5 -22.5q33 0 55.5 22.5t22.5 55.5v999l-39 58h475l-39 -58v-907q0 -98 -38 -185t-102.5 -151.5t-150.5 -101.5t-184 -37t-185 37t-151.5 101.5t-101.5 151.5t-37 185z" />
<glyph unicode="K" horiz-adv-x="1173" d="M0 0l39 55v1327l-39 58h475l-39 -58v-417l150 417l-21 58h475l-59 -58l-213 -591l244 -736l59 -55h-477l22 55l-180 545v-545l39 -55h-475z" />
<glyph unicode="L" horiz-adv-x="888" d="M0 0l39 55v1327l-39 58h475l-39 -58v-1077h232l118 84v-389h-786z" />
<glyph unicode="M" horiz-adv-x="1581" d="M0 0l39 55v1327l-39 58h510l229 -785l232 785h508l-39 -58v-1327l39 -55h-475l40 55v600l-192 -655h-223l-193 655v-600l39 -55h-475z" />
<glyph unicode="N" horiz-adv-x="1273" d="M0 0l39 55v1327l-39 58h502l235 -717v659l-41 58h475l-38 -58v-1327l38 -55h-499l-236 715v-660l39 -55h-475z" />
<glyph unicode="O" d="M0 475v490q0 98 37 184t101.5 150.5t151.5 102.5t185 38t184 -38t150.5 -102.5t102.5 -150.5t38 -184v-490q0 -98 -38 -185t-102.5 -151.5t-150.5 -101.5t-184 -37t-185 37t-151.5 101.5t-101.5 151.5t-37 185zM395 383q0 -33 22.5 -55.5t57.5 -22.5q33 0 55.5 22.5 t22.5 55.5v672q0 35 -22.5 57.5t-55.5 22.5t-56.5 -22.5t-23.5 -57.5v-672z" />
<glyph unicode="P" horiz-adv-x="1091" d="M0 0l39 55v1327l-39 58h532q94 0 178.5 -38t146 -103.5t97 -151.5t35.5 -182q0 -94 -34.5 -180.5t-96 -152t-145.5 -104.5t-181 -39h-96v-434l39 -55h-475zM436 795h78q33 0 56.5 22.5t23.5 54.5v183q0 35 -22.5 57.5t-57.5 22.5h-78v-340z" />
<glyph unicode="Q" d="M0 475v490q0 98 37 184t101.5 150.5t151.5 102.5t185 38t184 -38t150.5 -102.5t102.5 -150.5t38 -184v-490q0 -84 -26.5 -157.5t-74.5 -134t-112.5 -103.5t-140.5 -64q23 -16 49 -16h184l121 86v-389h-323q-88 0 -165 32.5t-137.5 88t-99.5 130.5t-51 158 q-80 66 -127 162.5t-47 206.5zM395 383q0 -33 22.5 -56.5t57.5 -23.5q33 0 55.5 23.5t22.5 56.5v672q0 35 -22.5 57.5t-55.5 22.5t-56.5 -22.5t-23.5 -57.5v-672z" />
<glyph unicode="R" horiz-adv-x="1114" d="M0 0l39 55v1327l-39 58h532q94 0 178.5 -38t146 -103.5t97 -151.5t35.5 -182q0 -115 -50 -215.5t-136 -165.5l153 -529l56 -55h-475l22 55l-123 432v-432l39 -55h-475zM436 795h78q33 0 56.5 22.5t23.5 54.5v183q0 35 -22.5 57.5t-57.5 22.5h-78v-340z" />
<glyph unicode="S" d="M0 475h436l-41 -55v-37q0 -33 22.5 -55.5t57.5 -22.5q33 0 55.5 22.5t22.5 55.5v94q0 35 -22.5 57.5t-55.5 22.5q-154 0 -255 65q-100 66 -152 164q-51 97 -51 208q-1 116 51 216q50 98 153 164t254 66q98 0 184 -38t150.5 -102.5t102.5 -150.5t38 -184h-436l39 55v35 q0 35 -22.5 57.5t-55.5 22.5t-56.5 -22.5t-23.5 -57.5v-115q0 -33 23.5 -55.5t56.5 -22.5q152 0 253 -63.5t152.5 -159.5t51.5 -208t-51.5 -208t-152.5 -159.5t-253 -63.5q-98 0 -185 37t-151.5 101.5t-101.5 151.5t-37 185z" />
<glyph unicode="T" horiz-adv-x="1122" d="M0 1049v391h1020v-391l-119 86h-192v-1080l39 -55h-476l41 55v1080h-194z" />
<glyph unicode="U" horiz-adv-x="1132" d="M0 1440h475l-39 -58v-999q0 -33 22.5 -55.5t55.5 -22.5t56.5 22.5t23.5 55.5v999l-41 58h477l-41 -58v-907q0 -98 -38 -185t-102.5 -151.5t-150.5 -101.5t-184 -37t-185 37t-151.5 101.5t-101.5 151.5t-37 185v907z" />
<glyph unicode="V" horiz-adv-x="1361" d="M0 1440h475l-24 -58l178 -616l178 616l-23 58h476l-58 -58l-379 -1314l68 -68h-522l67 68l-381 1314z" />
<glyph unicode="W" horiz-adv-x="1943" d="M0 1440h451l-23 -58l168 -616l135 487l-37 54h451l-35 -54l133 -487l170 616l-22 58h450l-53 -58l-361 -1314l64 -68h-496l64 68l-139 507l-140 -507l66 -68h-498l66 68l-361 1314z" />
<glyph unicode="X" horiz-adv-x="1187" d="M0 0l63 55l283 664l-283 663l-63 58h475l-16 -58l84 -196l84 196l-17 58h475l-63 -58l-281 -663l281 -664l63 -55h-475l17 55l-84 199l-84 -199l16 -55h-475z" />
<glyph unicode="Y" horiz-adv-x="1187" d="M0 1440h475l-16 -58l84 -196l84 196l-17 58h475l-63 -58l-281 -663v-664l39 -55h-475l41 55v664l-283 663z" />
<glyph unicode="Z" horiz-adv-x="1054" d="M0 0l57 55l359 1080h-238l-121 -86v391h895l-57 -58l-358 -1077h237l121 84v-389h-895z" />
<glyph unicode="[" horiz-adv-x="618" d="M0 -303v2046h516v-303l-121 49h-90v-1538h90l121 51v-305h-516z" />
<glyph unicode="\" d="M0 1743h475l-53 -119l409 -1505l119 -119h-475l53 119l-409 1505z" />
<glyph unicode="]" horiz-adv-x="618" d="M0 2l121 -51h90v1538h-90l-121 -49v303h516v-2046h-516v305z" />
<glyph unicode="^" horiz-adv-x="1419" d="M0 1421l129 17l530 305l531 -305l127 -17l-152 -264l-506 293l-507 -293z" />
<glyph unicode="_" horiz-adv-x="1447" d="M0 0l119 -51h1108l119 51v-303h-1346v303z" />
<glyph unicode="`" horiz-adv-x="733" d="M0 1743h367l264 -303h-242z" />
<glyph unicode="a" horiz-adv-x="1409" d="M0 0l57 55l383 1327l-24 58h475l-25 -58l383 -1327l58 -55h-476l23 55l-59 207h-283l-59 -207l22 -55h-475zM600 567h107l-54 187z" />
<glyph unicode="b" horiz-adv-x="1091" d="M0 0l39 55v1327l-39 58h532q94 -4 178.5 -43t146 -102.5t97 -148.5t35.5 -181q0 -68 -17.5 -129.5t-49.5 -114.5q33 -53 50 -115.5t17 -130.5q0 -96 -35.5 -180t-97 -148.5t-145.5 -103.5t-179 -43h-532zM436 303h78q35 0 57.5 23.5t22.5 56.5v182q0 33 -23.5 56.5 t-56.5 23.5h-78v-342zM436 864h78q33 0 56.5 22.5t23.5 55.5v113q0 35 -23.5 57.5t-56.5 22.5h-78v-271z" />
<glyph unicode="c" d="M0 475v490q0 98 37 184t101.5 150.5t151.5 102.5t185 38t184 -38t150.5 -102.5t102.5 -150.5t38 -184v-119h-436l39 55v154q0 35 -22.5 57.5t-55.5 22.5t-56.5 -22.5t-23.5 -57.5v-672q0 -33 23.5 -55.5t56.5 -22.5t55.5 22.5t22.5 55.5v154l-39 55h436v-117 q0 -98 -38 -185t-102.5 -151.5t-150.5 -101.5t-184 -37t-185 37t-151.5 101.5t-101.5 151.5t-37 185z" />
<glyph unicode="d" horiz-adv-x="1091" d="M0 0l39 55v1327l-39 58h475h57q94 0 178.5 -38t146 -103.5t97 -151.5t35.5 -182v-490q0 -96 -35.5 -182t-98 -151.5t-145.5 -103.5t-178 -38h-57h-475zM436 305h78q33 0 56.5 22.5t23.5 55.5v672q0 35 -22.5 57.5t-57.5 22.5h-78v-830z" />
<glyph unicode="e" horiz-adv-x="888" d="M0 0l39 55v1327l-39 58h786v-391l-118 86h-232v-289h156l119 86v-424l-119 84h-156v-287h232l118 84v-389h-786z" />
<glyph unicode="f" horiz-adv-x="888" d="M0 0l39 55v1327l-39 58h786v-391l-118 86h-232v-289h156l119 86v-424l-119 84h-156v-537l39 -55h-475z" />
<glyph unicode="g" d="M0 475v490q0 98 37 184t101.5 150.5t151.5 102.5t185 38t184 -38t150.5 -102.5t102.5 -150.5t38 -184v-111h-436l39 55v146q0 35 -22.5 57.5t-55.5 22.5t-56.5 -22.5t-23.5 -57.5v-672q0 -33 23.5 -55.5t56.5 -22.5t55.5 22.5t22.5 55.5v154l-39 55h436v-592h-305v31 q-80 -31 -170 -31q-98 0 -185 37t-151.5 101.5t-101.5 151.5t-37 185z" />
<glyph unicode="h" horiz-adv-x="1202" d="M0 0l39 55v1327l-39 58h475l-39 -58v-510h230v510l-41 58h475l-39 -58v-1327l39 -55h-475l41 55v512h-230v-512l39 -55h-475z" />
<glyph unicode="i" horiz-adv-x="577" d="M0 0l39 55v1327l-39 58h475l-39 -58v-1327l39 -55h-475z" />
<glyph unicode="j" horiz-adv-x="1091" d="M0 475v117h436l-41 -55v-154q0 -33 22.5 -55.5t57.5 -22.5q33 0 55.5 22.5t22.5 55.5v999l-39 58h475l-39 -58v-907q0 -98 -38 -185t-102.5 -151.5t-150.5 -101.5t-184 -37t-185 37t-151.5 101.5t-101.5 151.5t-37 185z" />
<glyph unicode="k" horiz-adv-x="1173" d="M0 0l39 55v1327l-39 58h475l-39 -58v-417l150 417l-21 58h475l-59 -58l-213 -591l244 -736l59 -55h-477l22 55l-180 545v-545l39 -55h-475z" />
<glyph unicode="l" horiz-adv-x="888" d="M0 0l39 55v1327l-39 58h475l-39 -58v-1077h232l118 84v-389h-786z" />
<glyph unicode="m" horiz-adv-x="1581" d="M0 0l39 55v1327l-39 58h510l229 -785l232 785h508l-39 -58v-1327l39 -55h-475l40 55v600l-192 -655h-223l-193 655v-600l39 -55h-475z" />
<glyph unicode="n" horiz-adv-x="1273" d="M0 0l39 55v1327l-39 58h502l235 -717v659l-41 58h475l-38 -58v-1327l38 -55h-499l-236 715v-660l39 -55h-475z" />
<glyph unicode="o" d="M0 475v490q0 98 37 184t101.5 150.5t151.5 102.5t185 38t184 -38t150.5 -102.5t102.5 -150.5t38 -184v-490q0 -98 -38 -185t-102.5 -151.5t-150.5 -101.5t-184 -37t-185 37t-151.5 101.5t-101.5 151.5t-37 185zM395 383q0 -33 22.5 -55.5t57.5 -22.5q33 0 55.5 22.5 t22.5 55.5v672q0 35 -22.5 57.5t-55.5 22.5t-56.5 -22.5t-23.5 -57.5v-672z" />
<glyph unicode="p" horiz-adv-x="1091" d="M0 0l39 55v1327l-39 58h532q94 0 178.5 -38t146 -103.5t97 -151.5t35.5 -182q0 -94 -34.5 -180.5t-96 -152t-145.5 -104.5t-181 -39h-96v-434l39 -55h-475zM436 795h78q33 0 56.5 22.5t23.5 54.5v183q0 35 -22.5 57.5t-57.5 22.5h-78v-340z" />
<glyph unicode="q" d="M0 475v490q0 98 37 184t101.5 150.5t151.5 102.5t185 38t184 -38t150.5 -102.5t102.5 -150.5t38 -184v-490q0 -84 -26.5 -157.5t-74.5 -134t-112.5 -103.5t-140.5 -64q23 -16 49 -16h184l121 86v-389h-323q-88 0 -165 32.5t-137.5 88t-99.5 130.5t-51 158 q-80 66 -127 162.5t-47 206.5zM395 383q0 -33 22.5 -56.5t57.5 -23.5q33 0 55.5 23.5t22.5 56.5v672q0 35 -22.5 57.5t-55.5 22.5t-56.5 -22.5t-23.5 -57.5v-672z" />
<glyph unicode="r" horiz-adv-x="1114" d="M0 0l39 55v1327l-39 58h532q94 0 178.5 -38t146 -103.5t97 -151.5t35.5 -182q0 -115 -50 -215.5t-136 -165.5l153 -529l56 -55h-475l22 55l-123 432v-432l39 -55h-475zM436 795h78q33 0 56.5 22.5t23.5 54.5v183q0 35 -22.5 57.5t-57.5 22.5h-78v-340z" />
<glyph unicode="s" d="M0 475h436l-41 -55v-37q0 -33 22.5 -55.5t57.5 -22.5q33 0 55.5 22.5t22.5 55.5v94q0 35 -22.5 57.5t-55.5 22.5q-154 0 -255 65q-100 66 -152 164q-51 97 -51 208q-1 116 51 216q50 98 153 164t254 66q98 0 184 -38t150.5 -102.5t102.5 -150.5t38 -184h-436l39 55v35 q0 35 -22.5 57.5t-55.5 22.5t-56.5 -22.5t-23.5 -57.5v-115q0 -33 23.5 -55.5t56.5 -22.5q152 0 253 -63.5t152.5 -159.5t51.5 -208t-51.5 -208t-152.5 -159.5t-253 -63.5q-98 0 -185 37t-151.5 101.5t-101.5 151.5t-37 185z" />
<glyph unicode="t" horiz-adv-x="1122" d="M0 1049v391h1020v-391l-119 86h-192v-1080l39 -55h-476l41 55v1080h-194z" />
<glyph unicode="u" horiz-adv-x="1132" d="M0 1440h475l-39 -58v-999q0 -33 22.5 -55.5t55.5 -22.5t56.5 22.5t23.5 55.5v999l-41 58h477l-41 -58v-907q0 -98 -38 -185t-102.5 -151.5t-150.5 -101.5t-184 -37t-185 37t-151.5 101.5t-101.5 151.5t-37 185v907z" />
<glyph unicode="v" horiz-adv-x="1361" d="M0 1440h475l-24 -58l178 -616l178 616l-23 58h476l-58 -58l-379 -1314l68 -68h-522l67 68l-381 1314z" />
<glyph unicode="w" horiz-adv-x="1943" d="M0 1440h451l-23 -58l168 -616l135 487l-37 54h451l-35 -54l133 -487l170 616l-22 58h450l-53 -58l-361 -1314l64 -68h-496l64 68l-139 507l-140 -507l66 -68h-498l66 68l-361 1314z" />
<glyph unicode="x" horiz-adv-x="1187" d="M0 0l63 55l283 664l-283 663l-63 58h475l-16 -58l84 -196l84 196l-17 58h475l-63 -58l-281 -663l281 -664l63 -55h-475l17 55l-84 199l-84 -199l16 -55h-475z" />
<glyph unicode="y" horiz-adv-x="1187" d="M0 1440h475l-16 -58l84 -196l84 196l-17 58h475l-63 -58l-281 -663v-664l39 -55h-475l41 55v664l-283 663z" />
<glyph unicode="z" horiz-adv-x="1054" d="M0 0l57 55l359 1080h-238l-121 -86v391h895l-57 -58l-358 -1077h237l121 84v-389h-895z" />
<glyph unicode="{" horiz-adv-x="743" d="M0 721l152 153v474q0 80 29.5 152.5t79.5 125.5t117.5 85t143.5 32h119v-252h-92q-39 0 -65.5 -26.5t-26.5 -65.5v-525l-152 -153l152 -152v-526q0 -39 26.5 -65.5t65.5 -26.5h92v-254h-119q-76 0 -143.5 31.5t-117.5 86t-79.5 127t-29.5 152.5v475z" />
<glyph unicode="|" horiz-adv-x="577" d="M0 -303l86 121v1806l-86 119h475l-86 -119v-1806l86 -121h-475z" />
<glyph unicode="}" horiz-adv-x="743" d="M0 -49h92q39 0 65.5 26.5t26.5 65.5v526l152 152l-152 153v525q0 39 -26.5 65.5t-65.5 26.5h-92v252h119q76 0 143.5 -32t117.5 -85t79.5 -126t29.5 -152v-474l152 -153l-152 -152v-475q0 -80 -29.5 -152.5t-79.5 -127t-117.5 -86t-143.5 -31.5h-119v254z" />
<glyph unicode="~" d="M0 514v358l68 -49q111 68 215 65t231 -61q76 -35 130 -43t101.5 6.5t95.5 48t109 87.5v-359l-71 51q-59 -37 -112.5 -52t-109 -13t-115 20.5t-126.5 49.5q-66 29 -118 34t-101.5 -10.5t-96.5 -49.5t-100 -83z" />
<glyph unicode="&#xa1;" horiz-adv-x="577" d="M0 -303l39 55l45 1258l-27 30h361l-27 -30l45 -1258l39 -55h-475zM86 1176v229q14 0 24.5 10t12.5 25h229q2 -14 12.5 -24.5t24.5 -10.5v-229q-16 0 -27.5 -12.5t-9.5 -28.5h-229q2 16 -9.5 28.5t-27.5 12.5z" />
<glyph unicode="&#xa2;" horiz-adv-x="765" d="M0 463v342q0 94 47 171t123 118v47l-90 127h502l-90 -127v-47q78 -41 125 -118t47 -171v-82h-306l29 39v106q0 23 -16.5 39.5t-38.5 16.5q-23 0 -39.5 -16.5t-16.5 -39.5v-469q0 -23 16.5 -39t39.5 -16t39 16.5t16 38.5v107l-29 39h306v-82q0 -94 -47.5 -171t-124.5 -118 v-47l90 -127h-502l90 127v47q-76 41 -123 118t-47 171z" />
<glyph unicode="&#xa3;" horiz-adv-x="1179" d="M0 532v306h127v127q0 98 37 184t101.5 150.5t151.5 102.5t185 38t184 -38t150.5 -102.5t102.5 -150.5t38 -184h-436l39 55v35q0 35 -22.5 57.5t-55.5 22.5t-56.5 -22.5t-23.5 -57.5v-217h434v-306h-434v-280h434l121 86v-338h-950v532h-127z" />
<glyph unicode="&#xa4;" horiz-adv-x="1110" d="M0 438l96 17q-37 57 -57.5 124.5t-20.5 139.5q0 74 20.5 140.5t57.5 125.5l-96 16l221 222l17 -97q59 37 125.5 58.5t140.5 21.5q72 0 139.5 -21.5t124.5 -58.5l16 97l224 -222l-97 -16q4 -8 7 -10q33 -55 51 -117.5t19 -127t-14.5 -127t-45.5 -120.5q-4 -8 -8.5 -14 t-8.5 -14l97 -17l-224 -221l-16 94q-57 -37 -125 -57.5t-139 -20.5q-74 0 -140.5 20.5t-125.5 57.5l-17 -94zM115 719q0 -80 30.5 -150.5t83 -123t124 -83t151.5 -30.5q104 0 189 48t138 130q29 45 43.5 99.5t14.5 108.5t-14.5 107.5t-43.5 100.5q-51 84 -137 133t-190 49 q-80 0 -151.5 -30.5t-124 -83t-83 -124t-30.5 -151.5z" />
<glyph unicode="&#xa5;" horiz-adv-x="1187" d="M0 1440h475l-16 -58l84 -196l84 196l-17 58h475l-63 -58l-174 -411h123v-254h-230v-154h230v-252h-230v-256l39 -55h-475l41 55v256h-231v252h231v154h-231v254h125l-177 411z" />
<glyph unicode="&#xa9;" horiz-adv-x="1368" d="M0 719q0 131 50 246.5t136 201.5t202 136.5t247 50.5q172 0 313.5 -83t225.5 -220q43 -72 66.5 -153t25.5 -164t-17.5 -166t-60.5 -156q-41 -74 -98.5 -133.5t-129 -102.5t-154.5 -66.5t-171 -23.5q-131 0 -247 49t-202 135t-136 202t-50 247zM127 719q0 -104 40 -196.5 t108.5 -161t161.5 -108.5t198 -40q135 0 246.5 63.5t179.5 169.5q39 59 58.5 129t19.5 141.5t-18.5 141.5t-57.5 131q-68 109 -180.5 173.5t-247.5 64.5q-104 0 -197.5 -40t-162 -108.5t-108.5 -162t-40 -197.5zM352 575v289q0 57 22.5 108.5t60.5 90.5t89 60.5t111 21.5 q57 0 108.5 -21.5t89 -60.5t60 -90t22.5 -109v-69h-258l23 32v91q0 20 -13.5 33.5t-31.5 13.5q-20 0 -33.5 -13.5t-13.5 -33.5v-398q0 -18 13 -32.5t34 -14.5q18 0 31.5 14.5t13.5 32.5v92l-23 33h258v-70q0 -59 -22.5 -110t-60 -89t-89 -60.5t-108.5 -22.5 q-59 0 -110.5 22.5t-89.5 60.5t-60.5 89t-22.5 110z" />
<glyph unicode="&#xaa;" horiz-adv-x="505" d="M0 1300l16 17l119 409l-6 17h145l-6 -17l117 -409l18 -17h-147l8 17l-18 63h-88l-19 -63l8 -17h-147zM184 1475h33l-16 57z" />
<glyph unicode="&#xab;" horiz-adv-x="1445" d="M0 719l631 364l80 105v-352l-203 -117l203 -117v-350l-80 102zM635 719l631 364l77 105v-352l-202 -117l202 -117v-350l-77 102z" />
<glyph unicode="&#xad;" horiz-adv-x="1050" d="M0 567v305h948v-305h-948z" />
<glyph unicode="&#xae;" horiz-adv-x="546" d="M0 1522q0 45 17.5 86t47 70.5t69.5 47t87 17.5q59 0 110.5 -28.5t80.5 -76.5q31 -51 31.5 -111.5t-27.5 -113.5q-29 -51 -80 -82t-115 -31q-47 0 -87 17.5t-69.5 47.5t-47 70t-17.5 87zM45 1522q0 -74 51 -126.5t125 -52.5q47 0 87 23t63 59q29 43 29 95.5t-27 95.5 q-25 37 -65 60.5t-87 23.5q-74 0 -125 -52.5t-51 -125.5zM137 1403l8 8v221l-8 8h90q31 0 52.5 -23.5t21.5 -53.5q0 -18 -7 -36t-24 -28l27 -88l8 -8h-78l4 8l-20 72v-72l6 -8h-80zM211 1534h12q12 0 13 12v31q0 14 -13 14h-12v-57z" />
<glyph unicode="&#xb0;" horiz-adv-x="407" d="M0 1591q0 63 44.5 107.5t107.5 44.5q41 0 74.5 -19.5t56.5 -52.5q20 -35 21 -77t-19 -76q-18 -35 -54 -56.5t-79 -21.5q-63 0 -107.5 44t-44.5 107zM43 1591q0 -45 31.5 -76.5t77.5 -31.5q63 0 94 53q31 47 6 100q-14 29 -40 46.5t-60 17.5q-45 0 -77 -32t-32 -77z" />
<glyph unicode="&#xb1;" horiz-adv-x="1050" d="M0 0v389l119 -84h710l119 84v-389h-948zM0 625v475l119 -84h203v203l-84 118h475l-86 -118v-203h202l119 84v-475l-119 86h-202v-203l86 -119h-475l84 119v203h-203z" />
<glyph unicode="&#xb2;" horiz-adv-x="395" d="M0 1300l12 17v119q2 49 33 89t100 40q10 0 17.5 7t7.5 17v37q0 23 -25 23q-23 0 -22 -23v-29h-123q0 59 43 102.5t102 43.5q70 0 106 -42t36 -93.5t-36 -93t-106 -41.5q-10 0 -16 -7.5t-6 -17.5v-55h133l37 26v-119h-293z" />
<glyph unicode="&#xb3;" horiz-adv-x="395" d="M0 1446h135l-14 -16v-13q0 -10 7 -17t17 -7t17.5 7t7.5 17v94q0 25 -29 29q29 4 29 31v55q0 23 -25 23q-10 0 -17 -6.5t-7 -16.5v-29h-121q0 59 43 102.5t102 43.5q61 0 104.5 -43t43.5 -103q0 -31 -12 -57q12 -25 12 -55v-39q0 -59 -43 -102.5t-105 -43.5q-59 0 -102 43 t-43 103z" />
<glyph unicode="&#xb4;" horiz-adv-x="733" d="M0 1440l264 303h367l-389 -303h-242z" />
<glyph unicode="&#xb7;" horiz-adv-x="407" d="M0 602v229q16 0 27.5 12.5t11.5 28.5h227q0 -16 11.5 -28.5t27.5 -12.5v-229q-16 0 -26.5 -10t-12.5 -25h-229q0 14 -10.5 24.5t-26.5 10.5z" />
<glyph unicode="&#xb9;" horiz-adv-x="262" d="M0 1640l25 103h122v-426l13 -17h-148l13 17v323h-25z" />
<glyph unicode="&#xba;" horiz-adv-x="395" d="M0 1446v151q0 59 43 102.5t102 43.5q61 0 104.5 -43t43.5 -103v-151q0 -59 -43 -102.5t-105 -43.5q-59 0 -102 43t-43 103zM123 1417q0 -10 6 -17t16 -7t17.5 7t7.5 17v209q0 23 -25 23q-23 0 -22 -23v-209z" />
<glyph unicode="&#xbb;" horiz-adv-x="1445" d="M0 252v350l203 117l-203 117v352l78 -105l631 -364l-631 -365zM633 252v350l203 117l-203 117v352l80 -105l630 -364l-630 -365z" />
<glyph unicode="&#xbc;" horiz-adv-x="2772" />
<glyph unicode="&#xbf;" d="M0 172q0 162 43 261t145 175q53 41 125 64.5t162 23.5q33 0 56.5 22.5t23.5 57.5v225l-29 39h361l-29 -39v-167q0 -102 -16.5 -184.5t-59.5 -139.5t-117.5 -87t-189.5 -30q-33 0 -55.5 -23.5t-22.5 -56.5v-233q0 -33 22.5 -56.5t55.5 -23.5q35 0 57.5 23.5t22.5 56.5v153 l-41 56h436v-117q0 -98 -38 -185t-102.5 -151.5t-150.5 -101.5t-184 -37t-185 37t-151.5 101.5t-101.5 151.5t-37 185zM555 1176v229q16 0 26.5 10t10.5 25h229q2 -14 12.5 -24.5t24.5 -10.5v-229q-16 0 -27.5 -12.5t-9.5 -28.5h-229q2 16 -9.5 28.5t-27.5 12.5z" />
<glyph unicode="&#xd7;" horiz-adv-x="1110" d="M0 553l145 22l144 144l-144 143l-145 25l336 336l24 -146l144 -143l143 143l25 146l336 -336l-146 -25l-143 -143l143 -144l146 -22l-336 -338l-25 145l-143 144l-144 -144l-24 -145z" />
<glyph unicode="&#xe6;" horiz-adv-x="2256" />
<glyph unicode="&#xf7;" horiz-adv-x="1290" d="M0 481v475l119 -84h950l119 84v-475l-119 86h-950zM442 211v231q16 0 27.5 11.5t9.5 27.5h230q-2 -16 9 -27.5t27 -11.5v-231q-33 0 -36 -33h-230q-4 33 -37 33zM442 991v232q16 0 27.5 11t9.5 28h230q-2 -16 9 -27.5t27 -11.5v-232q-33 0 -36 -35h-230q-4 35 -37 35z " />
<glyph unicode="&#x152;" horiz-adv-x="1402" />
<glyph unicode="&#x153;" horiz-adv-x="1402" />
<glyph unicode="&#x2000;" horiz-adv-x="871" />
<glyph unicode="&#x2001;" horiz-adv-x="1743" />
<glyph unicode="&#x2002;" horiz-adv-x="871" />
<glyph unicode="&#x2003;" horiz-adv-x="1743" />
<glyph unicode="&#x2004;" horiz-adv-x="581" />
<glyph unicode="&#x2005;" horiz-adv-x="435" />
<glyph unicode="&#x2006;" horiz-adv-x="290" />
<glyph unicode="&#x2007;" horiz-adv-x="290" />
<glyph unicode="&#x2008;" horiz-adv-x="217" />
<glyph unicode="&#x2009;" horiz-adv-x="348" />
<glyph unicode="&#x200a;" horiz-adv-x="96" />
<glyph unicode="&#x2010;" horiz-adv-x="1050" d="M0 481v475l119 -84h710l119 84v-475l-119 86h-710z" />
<glyph unicode="&#x2011;" horiz-adv-x="1050" d="M0 481v475l119 -84h710l119 84v-475l-119 86h-710z" />
<glyph unicode="&#x2012;" horiz-adv-x="1050" d="M0 481v475l119 -84h710l119 84v-475l-119 86h-710z" />
<glyph unicode="&#x2013;" horiz-adv-x="1759" d="M0 481v475l119 -84h1419l119 84v-475l-119 86h-1419z" />
<glyph unicode="&#x2014;" horiz-adv-x="2469" d="M0 481v475l119 -84h2130l118 84v-475l-118 86h-2130z" />
<glyph unicode="&#x2018;" horiz-adv-x="407" d="M0 1319v264l154 160h151l-151 -160h114q0 -14 10.5 -23.5t26.5 -9.5v-231q-16 0 -27.5 -11.5t-11.5 -27.5h-227q0 16 -11.5 27.5t-27.5 11.5z" />
<glyph unicode="&#x2019;" horiz-adv-x="407" d="M0 1280l152 160h-115q0 14 -10.5 23.5t-26.5 9.5v231q16 0 27.5 11t11.5 28h227q0 -16 11.5 -27.5t27.5 -11.5v-264l-153 -160h-152z" />
<glyph unicode="&#x201a;" horiz-adv-x="407" d="M0 35v229q16 0 27.5 12.5t11.5 28.5h227q0 -16 11.5 -28.5t27.5 -12.5v-264l-153 -158h-152l152 158h-115q0 14 -10.5 24.5t-26.5 10.5z" />
<glyph unicode="&#x201c;" horiz-adv-x="804" d="M0 1319v264l152 160h151l-151 -160h114q0 -14 10.5 -23.5t26.5 -9.5v-231q-16 0 -27.5 -11.5t-9.5 -27.5h-229q0 16 -10.5 27.5t-26.5 11.5zM397 1319v264l154 160h151l-151 -160h115q0 -14 10 -23.5t26 -9.5v-231q-16 0 -27 -11.5t-11 -27.5h-228q0 16 -11 27.5 t-28 11.5z" />
<glyph unicode="&#x201d;" horiz-adv-x="804" d="M0 1280l152 160h-115q0 14 -10.5 23.5t-26.5 9.5v231q16 0 27.5 11t11.5 28h227q0 -16 11.5 -27.5t27.5 -11.5v-264l-153 -160h-152zM399 1280l152 160h-115q0 14 -10 23.5t-27 9.5v231q16 0 27.5 11t9.5 28h230q0 -16 10 -27.5t26 -11.5v-264l-151 -160h-152z" />
<glyph unicode="&#x201e;" horiz-adv-x="804" d="M0 33v231q16 0 27.5 11.5t11.5 27.5h227q0 -16 11.5 -27.5t27.5 -11.5v-264l-153 -160h-152l152 160h-115q0 14 -10.5 23.5t-26.5 9.5zM399 33v231q16 0 27.5 11.5t9.5 27.5h230q0 -16 10 -27.5t26 -11.5v-264l-151 -160h-152l152 160h-115q0 14 -10 23.5t-27 9.5z" />
<glyph unicode="&#x2022;" horiz-adv-x="546" d="M0 547v336q23 0 40 17.5t15 41.5h334q-2 -25 14.5 -42t40.5 -17v-336q-23 0 -38 -13.5t-17 -35.5h-334q-2 23 -17 36t-38 13z" />
<glyph unicode="&#x2026;" horiz-adv-x="1222" d="M0 35v229q16 0 27.5 12.5t11.5 28.5h227q0 -16 11.5 -28.5t27.5 -12.5v-229q-16 0 -26.5 -10.5t-12.5 -24.5h-229q0 14 -10.5 24.5t-26.5 10.5zM408 35v229q16 0 27 12.5t11 28.5h228q0 -16 11 -28.5t28 -12.5v-229q-16 0 -26.5 -10.5t-12.5 -24.5h-230q0 14 -10 24.5 t-26 10.5zM815 35v229q16 0 27.5 12.5t11.5 28.5h227q0 -16 11.5 -28.5t27.5 -12.5v-229q-16 0 -26.5 -10.5t-12.5 -24.5h-229q0 14 -10.5 24.5t-26.5 10.5z" />
<glyph unicode="&#x202f;" horiz-adv-x="348" />
<glyph unicode="&#x2039;" horiz-adv-x="964" d="M0 719l631 364l78 105l153 -264l-354 -205l354 -205l-153 -262l-78 102z" />
<glyph unicode="&#x203a;" horiz-adv-x="964" d="M0 514l354 205l-354 205l154 264l77 -105l631 -364l-631 -365l-77 -102z" />
<glyph unicode="&#x205f;" horiz-adv-x="435" />
<glyph unicode="&#x20ac;" horiz-adv-x="970" d="M0 403v252h119v127h-119v254h119v6q0 80 29.5 153t80 127t118 86t142.5 32h379v-340l-120 86h-232q-39 0 -65.5 -26.5t-26.5 -65.5v-58h324v-254h-324v-127h324v-252h-324v-59q0 -37 26.5 -64.5t65.5 -27.5h232l120 86v-338h-379q-76 0 -143 31.5t-117.5 85t-80 126 t-29.5 152.5v8h-119z" />
<glyph unicode="&#x2122;" horiz-adv-x="917" d="M0 1624v119h315v-119l-36 25h-60v-332l12 -17h-147l12 17v332h-59zM358 1300l13 17v409l-13 17h158l72 -242l69 242h158l-12 -17v-409l12 -17h-147l12 17v184l-57 -201h-70l-59 201v-184l12 -17h-148z" />
<glyph unicode="&#x25fc;" horiz-adv-x="1443" d="M0 0v1444h1444v-1444h-1444z" />
<glyph unicode="&#xfb01;" horiz-adv-x="1466" />
<glyph unicode="&#xfb02;" horiz-adv-x="1777" />
</font>
</defs>
</svg>
